999
Dxf file generated by netDxf http://netdxf.codeplex.com, Copyright(C) 2014 Daniel Carvajal, Licensed under LGPL
999
Dxf file generated by netDxf http://netdxf.codeplex.com, Copyright(C) 2014 Daniel Carvajal, Licensed under LGPL
0
SECTION
2
HEADER
9
$ACADVER
1
AC1015
9
$DWGCODEPAGE
3
ANSI_1250
9
$HANDSEED
5
70
9
$ANGBASE
50
0
9
$ANGDIR
70
0
9
$ATTMODE
70
1
9
$AUNITS
70
0
9
$AUPREC
70
0
9
$CECOLOR
62
256
9
$CELTSCALE
40
1
9
$CELTYPE
6
ByLayer
9
$CELWEIGHT
370
-1
9
$CLAYER
8
0
9
$CMLJUST
70
0
9
$CMLSCALE
40
20
9
$CMLSTYLE
2
Standard
9
$DIMSTYLE
2
Standard
9
$TEXTSIZE
40
2.5
9
$TEXTSTYLE
7
Standard
9
$LUNITS
70
2
9
$LUPREC
70
4
9
$EXTNAMES
290
1
9
$INSUNITS
70
4
9
$LTSCALE
40
1
9
$LWDISPLAY
290
0
9
$PDMODE
70
0
9
$PDSIZE
40
0
9
$PLINEGEN
70
0
9
$TDCREATE
40
2457327.32900463
9
$TDUCREATE
40
2457327.28733796
9
$TDUPDATE
40
2457327.32900463
9
$TDUUPDATE
40
2457327.28733796
9
$TDINDWG
40
0
0
ENDSEC
0
SECTION
2
CLASSES
0
CLASS
1
RASTERVARIABLES
2
AcDbRasterVariables
3
ISM
90
0
280
0
281
0
0
ENDSEC
0
SECTION
2
TABLES
0
TABLE
2
APPID
5
3
330
0
100
AcDbSymbolTable
0
APPID
5
14
330
3
100
AcDbSymbolTableRecord
100
AcDbRegAppTableRecord
2
ACAD
70
0
0
APPID
5
20
330
3
100
AcDbSymbolTableRecord
100
AcDbRegAppTableRecord
2
netDxf
70
0
0
APPID
5
21
330
3
100
AcDbSymbolTableRecord
100
AcDbRegAppTableRecord
2
other application
70
0
0
APPID
5
52
330
3
100
AcDbSymbolTableRecord
100
AcDbRegAppTableRecord
2
AcCmTransparency
70
0
0
ENDTAB
0
TABLE
2
VPORT
5
1
330
0
100
AcDbSymbolTable
0
ENDTAB
0
TABLE
2
LTYPE
5
5
330
0
100
AcDbSymbolTable
0
LTYPE
5
10
330
5
100
AcDbSymbolTableRecord
100
AcDbLinetypeTableRecord
70
0
2
Continuous
3
Solid line
72
65
73
0
40
0
0
LTYPE
5
11
330
5
100
AcDbSymbolTableRecord
100
AcDbLinetypeTableRecord
70
0
2
ByLayer
3

72
65
73
0
40
0
0
LTYPE
5
12
330
5
100
AcDbSymbolTableRecord
100
AcDbLinetypeTableRecord
70
0
2
ByBlock
3

72
65
73
0
40
0
0
LTYPE
5
23
330
5
100
AcDbSymbolTableRecord
100
AcDbLinetypeTableRecord
70
0
2
Dashed
3
Dashed, __ __ __ __ __ __ __ __ __ __ __ __ __ _
72
65
73
2
40
0.75
49
0.5
74
0
49
-0.25
74
0
0
ENDTAB
0
TABLE
2
LAYER
5
4
330
0
100
AcDbSymbolTable
0
LAYER
5
F
330
4
100
AcDbSymbolTableRecord
100
AcDbLayerTableRecord
2
0
70
0
62
7
6
Continuous
290
1
370
-3
390
0
0
LAYER
5
1E
330
4
100
AcDbSymbolTableRecord
100
AcDbLayerTableRecord
2
arc
70
0
62
1
6
Continuous
290
1
370
-3
390
0
0
LAYER
5
22
330
4
100
AcDbSymbolTableRecord
100
AcDbLayerTableRecord
2
circle with spaces
70
0
62
2
6
Continuous
290
1
370
-3
390
0
0
LAYER
5
25
330
4
100
AcDbSymbolTableRecord
100
AcDbLayerTableRecord
2
point
70
0
62
9
6
Continuous
290
1
370
-3
390
0
0
LAYER
5
28
330
4
100
AcDbSymbolTableRecord
100
AcDbLayerTableRecord
2
3dface
70
0
62
3
6
Continuous
290
1
370
-3
390
0
0
LAYER
5
2A
330
4
100
AcDbSymbolTableRecord
100
AcDbLayerTableRecord
2
polyline2d
70
0
62
5
6
Continuous
290
1
370
-3
390
0
0
LAYER
5
2C
330
4
100
AcDbSymbolTableRecord
100
AcDbLayerTableRecord
2
lwpolyline
70
0
62
5
6
Continuous
290
1
370
-3
390
0
0
LAYER
5
37
330
4
100
AcDbSymbolTableRecord
100
AcDbLayerTableRecord
2
polyfacemesh
70
0
62
104
6
Continuous
290
1
370
-3
390
0
0
LAYER
5
39
330
4
100
AcDbSymbolTableRecord
100
AcDbLayerTableRecord
2
line
70
0
62
6
6
Continuous
290
1
370
-3
390
0
0
LAYER
5
40
330
4
100
AcDbSymbolTableRecord
100
AcDbLayerTableRecord
2
polyline3d
70
0
62
24
6
Continuous
290
1
370
-3
390
0
0
LAYER
5
48
330
4
100
AcDbSymbolTableRecord
100
AcDbLayerTableRecord
2
insert
70
0
62
4
6
Continuous
290
1
370
-3
390
0
0
LAYER
5
4B
330
4
100
AcDbSymbolTableRecord
100
AcDbLayerTableRecord
2
text
70
0
62
8
6
Continuous
290
1
370
-3
390
0
0
ENDTAB
0
TABLE
2
STYLE
5
6
330
0
100
AcDbSymbolTable
0
STYLE
5
13
330
6
100
AcDbSymbolTableRecord
100
AcDbTextStyleTableRecord
2
Standard
3
simplex.shx
70
0
71
0
40
0
41
1
42
0
50
0
0
STYLE
5
4A
330
6
100
AcDbSymbolTableRecord
100
AcDbTextStyleTableRecord
2
True type font
3
Arial.ttf
70
0
71
0
40
0
41
1
42
0
50
0
0
ENDTAB
0
TABLE
2
DIMSTYLE
5
7
330
0
100
AcDbSymbolTable
100
AcDbDimStyleTable
0
DIMSTYLE
105
15
330
7
100
AcDbSymbolTableRecord
100
AcDbDimStyleTableRecord
2
Standard
70
0
3
<>
41
0.18
42
0.0625
44
0.18
140
0.18
147
0.09
73
0
74
0
77
1
271
2
275
0
278
52
280
0
340
13
0
ENDTAB
0
TABLE
2
VIEW
5
68
330
0
100
AcDbSymbolTable
0
ENDTAB
0
TABLE
2
UCS
5
67
330
0
100
AcDbSymbolTable
0
ENDTAB
0
TABLE
2
BLOCK_RECORD
5
A
330
0
100
AcDbSymbolTable
0
BLOCK_RECORD
5
17
330
A
100
AcDbSymbolTableRecord
100
AcDbBlockTableRecord
2
*Model_Space
340
1B
0
BLOCK_RECORD
5
43
330
A
100
AcDbSymbolTableRecord
100
AcDbBlockTableRecord
2
TestBlock
340
0
70
4
280
1
281
0
1001
ACAD
1000
DesignCenter Data
1002
{
1070
1
1070
4
1002
}
0
BLOCK_RECORD
5
4C
330
A
100
AcDbSymbolTableRecord
100
AcDbBlockTableRecord
2
*Paper_Space
340
51
0
ENDTAB
0
ENDSEC
0
SECTION
2
BLOCKS
0
BLOCK
5
19
330
17
100
AcDbEntity
8
0
100
AcDbBlockBegin
2
*Model_Space
70
0
10
0
20
0
30
0
3
*Model_Space
0
ENDBLK
5
18
330
17
100
AcDbEntity
8
0
100
AcDbBlockEnd
0
BLOCK
5
45
330
43
100
AcDbEntity
8
0
100
AcDbBlockBegin
2
TestBlock
70
0
10
0
20
0
30
0
3
TestBlock
0
LINE
5
46
330
43
100
AcDbEntity
8
0
62
256
6
ByLayer
370
-1
48
1
60
0
100
AcDbLine
10
-5
20
-5
30
5
11
5
21
5
31
5
39
0
210
0
220
0
230
1
0
LINE
5
47
330
43
100
AcDbEntity
8
0
62
256
6
ByLayer
370
-1
48
1
60
0
100
AcDbLine
10
5
20
-5
30
5
11
-5
21
5
31
5
39
0
210
0
220
0
230
1
0
ENDBLK
5
44
330
43
100
AcDbEntity
8
0
100
AcDbBlockEnd
0
BLOCK
5
4E
330
4C
100
AcDbEntity
8
0
100
AcDbBlockBegin
2
*Paper_Space
70
0
10
0
20
0
30
0
3
*Paper_Space
0
ENDBLK
5
4D
330
4C
100
AcDbEntity
8
0
100
AcDbBlockEnd
0
ENDSEC
0
SECTION
2
ENTITIES
0
ARC
5
1D
330
17
100
AcDbEntity
67
0
8
arc
62
256
6
ByLayer
370
-1
48
1
60
0
100
AcDbCircle
39
0
10
10
20
10
30
0
40
10
210
0
220
0
230
1
100
AcDbArc
50
45
51
135
0
CIRCLE
5
1F
330
17
100
AcDbEntity
67
0
8
circle with spaces
62
256
6
Dashed
370
-1
48
1
60
0
100
AcDbCircle
10
0
20
1.4142135623731
30
1
40
5
39
0
210
0.577350269189626
220
0.577350269189626
230
0.577350269189626
1001
netDxf
1000
extended data with netDxf
1002
{
1011
0
1021
0
1031
0
1002
}
1001
other application
1000
extended data with netDxf
1002
{
1000
string record
1040
15.5
1071
350
1002
}
0
POINT
5
24
330
17
100
AcDbEntity
67
0
8
point
62
30
6
ByLayer
370
-1
48
1
60
0
100
AcDbPoint
10
-3
20
-3
30
0
39
0
210
0
220
0
230
1
50
360
0
POINT
5
26
330
17
100
AcDbEntity
67
0
8
point
62
256
6
ByLayer
370
-1
48
1
60
0
100
AcDbPoint
10
1
20
1
30
1
39
0
210
0.577350269189626
220
0.577350269189626
230
0.577350269189626
50
360
0
3DFACE
5
27
330
17
100
AcDbEntity
67
0
8
3dface
62
256
6
ByLayer
370
-1
48
1
60
0
100
AcDbFace
10
-5
20
-5
30
5
11
5
21
-5
31
5
12
5
22
5
32
5
13
-5
23
5
33
5
70
0
0
LWPOLYLINE
5
29
330
17
100
AcDbEntity
67
0
8
polyline2d
62
256
6
ByLayer
370
50
48
1
60
0
100
AcDbPolyline
90
4
70
1
38
100
39
0
10
-50
20
-50
40
20
41
0
42
0
10
50
20
-50
40
1
41
0
42
0
10
50
20
50
40
0
41
0
42
1
10
-50
20
50
40
0
41
0
42
0
210
0.577350269189626
220
0.577350269189626
230
0.577350269189626
0
LWPOLYLINE
5
2B
330
17
100
AcDbEntity
67
0
8
lwpolyline
62
256
6
ByLayer
370
-1
48
1
60
0
100
AcDbPolyline
90
4
70
1
38
100
39
0
10
-25
20
-25
40
20
41
0
42
0
10
25
20
-25
40
1
41
0
42
0
10
25
20
25
40
0
41
0
42
1
10
-25
20
25
40
0
41
0
42
0
210
0.577350269189626
220
0.577350269189626
230
0.577350269189626
0
POLYLINE
5
36
330
17
100
AcDbEntity
67
0
8
polyfacemesh
62
256
6
ByLayer
370
-1
48
1
60
0
100
AcDbPolyFaceMesh
70
64
71
5
72
3
10
0
20
0
30
0
210
0
220
0
230
1
0
VERTEX
5
2E
100
AcDbEntity
8
polyfacemesh
62
256
100
AcDbVertex
100
AcDbPolyFaceMeshVertex
70
192
10
0
20
0
30
0
0
VERTEX
5
2F
100
AcDbEntity
8
polyfacemesh
62
256
100
AcDbVertex
100
AcDbPolyFaceMeshVertex
70
192
10
10
20
0
30
0
0
VERTEX
5
30
100
AcDbEntity
8
polyfacemesh
62
256
100
AcDbVertex
100
AcDbPolyFaceMeshVertex
70
192
10
10
20
10
30
0
0
VERTEX
5
31
100
AcDbEntity
8
polyfacemesh
62
256
100
AcDbVertex
100
AcDbPolyFaceMeshVertex
70
192
10
5
20
15
30
0
0
VERTEX
5
32
100
AcDbEntity
8
polyfacemesh
62
256
100
AcDbVertex
100
AcDbPolyFaceMeshVertex
70
192
10
0
20
10
30
0
0
VERTEX
5
33
100
AcDbEntity
8
polyfacemesh
62
256
100
AcDbFaceRecord
70
128
10
0
20
0
30
0
71
1
72
2
73
-3
0
VERTEX
5
34
100
AcDbEntity
8
polyfacemesh
62
256
100
AcDbFaceRecord
70
128
10
0
20
0
30
0
71
-1
72
3
73
-4
0
VERTEX
5
35
100
AcDbEntity
8
polyfacemesh
62
256
100
AcDbFaceRecord
70
128
10
0
20
0
30
0
71
-1
72
4
73
5
0
SEQEND
5
2D
100
AcDbEntity
8
0
0
LINE
5
38
330
17
100
AcDbEntity
67
0
8
line
62
256
6
ByLayer
370
-1
48
1
60
0
100
AcDbLine
10
0
20
0
30
0
11
10
21
10
31
10
39
0
210
0
220
0
230
1
0
POLYLINE
5
3F
330
17
100
AcDbEntity
67
0
8
polyline3d
62
256
6
ByLayer
370
-1
48
1
60
0
100
AcDb3dPolyline
10
0
20
0
30
0
70
9
75
0
210
0
220
0
230
1
0
VERTEX
5
3A
100
AcDbEntity
8
polyline3d
62
256
100
AcDbVertex
100
AcDb3dPolylineVertex
10
-50
20
-50
30
0
70
32
0
VERTEX
5
3B
100
AcDbEntity
8
polyline3d
62
256
100
AcDbVertex
100
AcDb3dPolylineVertex
10
50
20
-50
30
10
70
32
0
VERTEX
5
3C
100
AcDbEntity
8
polyline3d
62
256
100
AcDbVertex
100
AcDb3dPolylineVertex
10
50
20
50
30
25
70
32
0
VERTEX
5
3D
100
AcDbEntity
8
polyline3d
62
256
100
AcDbVertex
100
AcDb3dPolylineVertex
10
-50
20
50
30
50
70
32
0
SEQEND
5
3E
100
AcDbEntity
8
0
0
INSERT
5
42
330
17
100
AcDbEntity
67
0
8
insert
62
256
6
ByLayer
370
-1
48
1
60
0
100
AcDbBlockReference
2
TestBlock
10
5
20
5
30
5
41
1
42
1
43
1
50
0
210
0
220
0
230
1
0
TEXT
5
49
330
17
100
AcDbEntity
67
0
8
text
62
256
6
ByLayer
370
-1
48
1
60
0
100
AcDbText
1
Hello world!
10
0
20
0
30
0
40
10
41
1
50
0
51
0
7
True type font
11
0
21
0
31
0
210
0
220
0
230
1
72
2
100
AcDbText
73
3
0
VIEWPORT
5
50
330
4C
100
AcDbEntity
67
1
8
0
62
256
6
ByLayer
370
-1
48
1
60
0
100
AcDbViewport
10
0
20
0
30
0
40
297
41
210
68
1
69
1
12
50
22
100
13
0
23
0
14
10
24
10
15
10
25
10
16
0
26
0
36
1
17
0
27
0
37
0
42
50
43
0
44
0
45
250
50
0
51
0
72
1000
90
819232
110
0
120
0
130
0
111
1
121
0
131
0
112
0
122
1
132
0
0
ENDSEC
0
SECTION
2
OBJECTS
0
DICTIONARY
5
6B
330
0
100
AcDbDictionary
280
0
281
1
3
ACAD_GROUP
350
6C
3
ACAD_LAYOUT
350
6D
3
ACAD_MLINESTYLE
350
6E
0
DICTIONARY
5
6C
330
6B
100
AcDbDictionary
280
0
281
1
0
DICTIONARY
5
6D
330
6B
100
AcDbDictionary
280
0
281
1
3
Model
350
1B
3
Layout1
350
51
0
DICTIONARY
5
6E
330
6B
100
AcDbDictionary
280
0
281
1
3
Standard
350
16
0
LAYOUT
5
1B
330
6D
100
AcDbPlotSettings
1

2
none_device
4
ISO_A4_(210.00_x_297.00_MM)
6

40
7.5
41
20
42
7.5
43
20
44
210
45
297
46
0
47
0
48
0
49
0
140
0
141
0
142
1
143
1
70
11952
72
1
73
1
74
5
7

75
16
147
1
148
0
149
0
100
AcDbLayout
1
Model
70
1
71
1
10
-7.5
20
-7.5
11
277
21
202.5
12
0
22
0
32
0
14
25.7
24
19.5
34
0
15
231.3
25
175.5
35
0
146
0
13
0
23
0
33
0
16
1
26
0
36
0
17
0
27
1
37
0
76
0
330
17
0
LAYOUT
5
51
330
6D
100
AcDbPlotSettings
1

2
none_device
4
ISO_A4_(210.00_x_297.00_MM)
6

40
7.5
41
20
42
7.5
43
20
44
210
45
297
46
0
47
0
48
0
49
0
140
0
141
0
142
1
143
1
70
688
72
1
73
1
74
5
7

75
16
147
1
148
0
149
0
100
AcDbLayout
1
Layout1
70
1
71
1
10
-7.5
20
-7.5
11
277
21
202.5
12
0
22
0
32
0
14
25.7
24
19.5
34
0
15
231.3
25
175.5
35
0
146
0
13
0
23
0
33
0
16
1
26
0
36
0
17
0
27
1
37
0
76
0
330
4C
0
MLINESTYLE
5
16
330
6E
100
AcDbMlineStyle
2
Standard
70
0
3

62
256
51
90
52
90
71
2
49
-0.5
62
256
6
ByLayer
49
0.5
62
256
6
ByLayer
0
ENDSEC
0
EOF
