999
Dxf file generated by netDxf http://netdxf.codeplex.com, Copyright(C) 2014 Daniel Carvajal, Licensed under LGPL
999
Dxf file generated by netDxf http://netdxf.codeplex.com, Copyright(C) 2014 Daniel Carvajal, Licensed under LGPL
0
SECTION
2
HEADER
9
$ACADVER
1
AC1015
9
$DWGCODEPAGE
3
ANSI_1250
9
$HANDSEED
5
6B
9
$ANGBASE
50
0
9
$ANGDIR
70
0
9
$ATTMODE
70
1
9
$AUNITS
70
0
9
$AUPREC
70
0
9
$CECOLOR
62
256
9
$CELTSCALE
40
1
9
$CELTYPE
6
ByLayer
9
$CELWEIGHT
370
-1
9
$CLAYER
8
0
9
$CMLJUST
70
0
9
$CMLSCALE
40
20
9
$CMLSTYLE
2
Standard
9
$DIMSTYLE
2
Standard
9
$TEXTSIZE
40
2.5
9
$TEXTSTYLE
7
Standard
9
$LUNITS
70
2
9
$LUPREC
70
4
9
$EXTNAMES
290
1
9
$INSUNITS
70
4
9
$LTSCALE
40
1
9
$LWDISPLAY
290
0
9
$PDMODE
70
0
9
$PDSIZE
40
0
9
$PLINEGEN
70
0
9
$TDCREATE
40
2457368.83975694
9
$TDUCREATE
40
2457368.79809028
9
$TDUPDATE
40
2457368.83975694
9
$TDUUPDATE
40
2457368.79809028
9
$TDINDWG
40
0
0
ENDSEC
0
SECTION
2
CLASSES
0
CLASS
1
RASTERVARIABLES
2
AcDbRasterVariables
3
ISM
90
0
280
0
281
0
0
ENDSEC
0
SECTION
2
TABLES
0
TABLE
2
APPID
5
3
330
0
100
AcDbSymbolTable
0
APPID
5
14
330
3
100
AcDbSymbolTableRecord
100
AcDbRegAppTableRecord
2
ACAD
70
0
0
APPID
5
4C
330
3
100
AcDbSymbolTableRecord
100
AcDbRegAppTableRecord
2
AcCmTransparency
70
0
0
ENDTAB
0
TABLE
2
VPORT
5
1
330
0
100
AcDbSymbolTable
0
ENDTAB
0
TABLE
2
LTYPE
5
5
330
0
100
AcDbSymbolTable
0
LTYPE
5
10
330
5
100
AcDbSymbolTableRecord
100
AcDbLinetypeTableRecord
70
0
2
Continuous
3
Solid line
72
65
73
0
40
0
0
LTYPE
5
11
330
5
100
AcDbSymbolTableRecord
100
AcDbLinetypeTableRecord
70
0
2
ByLayer
3

72
65
73
0
40
0
0
LTYPE
5
12
330
5
100
AcDbSymbolTableRecord
100
AcDbLinetypeTableRecord
70
0
2
ByBlock
3

72
65
73
0
40
0
0
ENDTAB
0
TABLE
2
LAYER
5
4
330
0
100
AcDbSymbolTable
0
LAYER
5
F
330
4
100
AcDbSymbolTableRecord
100
AcDbLayerTableRecord
2
0
70
0
62
7
6
Continuous
290
1
370
-3
390
0
0
LAYER
5
28
330
4
100
AcDbSymbolTableRecord
100
AcDbLayerTableRecord
2
Defpoints
70
0
62
7
6
Continuous
290
0
370
-3
390
0
0
ENDTAB
0
TABLE
2
STYLE
5
6
330
0
100
AcDbSymbolTable
0
STYLE
5
13
330
6
100
AcDbSymbolTableRecord
100
AcDbTextStyleTableRecord
2
Standard
3
simplex.shx
70
0
71
0
40
0
41
1
42
0
50
0
0
ENDTAB
0
TABLE
2
DIMSTYLE
5
7
330
0
100
AcDbSymbolTable
100
AcDbDimStyleTable
0
DIMSTYLE
105
15
330
7
100
AcDbSymbolTableRecord
100
AcDbDimStyleTableRecord
2
Standard
70
0
3
<>
41
0.18
42
0.0625
44
0.18
140
0.18
147
0.09
73
0
74
0
77
1
271
2
275
0
278
52
280
0
340
13
0
DIMSTYLE
105
23
330
7
100
AcDbSymbolTableRecord
100
AcDbDimStyleTableRecord
2
MyStyle
70
0
3
<>mm
41
0.18
42
0.0625
44
0.18
140
0.18
147
0.09
73
0
74
0
77
1
271
2
275
0
278
52
280
0
340
13
0
ENDTAB
0
TABLE
2
VIEW
5
53
330
0
100
AcDbSymbolTable
0
ENDTAB
0
TABLE
2
UCS
5
52
330
0
100
AcDbSymbolTable
0
ENDTAB
0
TABLE
2
BLOCK_RECORD
5
A
330
0
100
AcDbSymbolTable
0
BLOCK_RECORD
5
17
330
A
100
AcDbSymbolTableRecord
100
AcDbBlockTableRecord
2
*Model_Space
340
1B
0
BLOCK_RECORD
5
1F
330
A
100
AcDbSymbolTableRecord
100
AcDbBlockTableRecord
2
MyBlock
340
0
70
4
280
1
281
0
1001
ACAD
1000
DesignCenter Data
1002
{
1070
1
1070
4
1002
}
0
BLOCK_RECORD
5
54
330
A
100
AcDbSymbolTableRecord
100
AcDbBlockTableRecord
2
*D1
340
0
0
BLOCK_RECORD
5
60
330
A
100
AcDbSymbolTableRecord
100
AcDbBlockTableRecord
2
NestedBlock
340
0
70
4
280
1
281
0
1001
ACAD
1000
DesignCenter Data
1002
{
1070
1
1070
4
1002
}
0
BLOCK_RECORD
5
39
330
A
100
AcDbSymbolTableRecord
100
AcDbBlockTableRecord
2
MyBlock2
340
0
70
4
280
1
281
0
1001
ACAD
1000
DesignCenter Data
1002
{
1070
1
1070
4
1002
}
0
BLOCK_RECORD
5
3F
330
A
100
AcDbSymbolTableRecord
100
AcDbBlockTableRecord
2
MyBlock3
340
0
70
4
280
1
281
0
1001
ACAD
1000
DesignCenter Data
1002
{
1070
1
1070
4
1002
}
0
BLOCK_RECORD
5
46
330
A
100
AcDbSymbolTableRecord
100
AcDbBlockTableRecord
2
*Paper_Space
340
4B
0
ENDTAB
0
ENDSEC
0
SECTION
2
BLOCKS
0
BLOCK
5
19
330
17
100
AcDbEntity
8
0
100
AcDbBlockBegin
2
*Model_Space
70
0
10
0
20
0
30
0
3
*Model_Space
0
ENDBLK
5
18
330
17
100
AcDbEntity
8
0
100
AcDbBlockEnd
0
BLOCK
5
21
330
1F
100
AcDbEntity
8
0
100
AcDbBlockBegin
2
MyBlock
70
0
10
0
20
0
30
0
3
MyBlock
0
DIMENSION
5
22
330
1F
100
AcDbEntity
8
0
62
256
6
ByLayer
370
-1
48
1
60
0
100
AcDbDimension
2
*D1
10
5
20
9.5
30
0
11
2.5
21
9.5
31
0
70
32
71
5
72
1
41
1
210
0
220
0
230
1
3
MyStyle
100
AcDbAlignedDimension
13
0
23
0
33
0
14
5
24
5
34
0
50
0
100
AcDbRotatedDimension
0
INSERT
5
32
330
1F
100
AcDbEntity
8
0
62
256
6
ByLayer
370
-1
48
1
60
0
100
AcDbBlockReference
2
NestedBlock
10
0
20
0
30
0
41
1
42
1
43
1
50
0
210
0
220
0
230
1
0
ENDBLK
5
20
330
1F
100
AcDbEntity
8
0
100
AcDbBlockEnd
0
BLOCK
5
56
330
54
100
AcDbEntity
8
0
100
AcDbBlockBegin
2
*D1
70
1
10
0
20
0
30
0
3
*D1
0
POINT
5
57
330
54
100
AcDbEntity
8
Defpoints
62
256
6
ByLayer
370
-1
48
1
60
0
100
AcDbPoint
10
0
20
0
30
0
39
0
210
0
220
0
230
1
50
360
0
POINT
5
58
330
54
100
AcDbEntity
8
Defpoints
62
256
6
ByLayer
370
-1
48
1
60
0
100
AcDbPoint
10
5
20
5
30
0
39
0
210
0
220
0
230
1
50
360
0
POINT
5
59
330
54
100
AcDbEntity
8
Defpoints
62
256
6
ByLayer
370
-1
48
1
60
0
100
AcDbPoint
10
5
20
9.5
30
0
39
0
210
0
220
0
230
1
50
360
0
LINE
5
5A
330
54
100
AcDbEntity
8
0
62
256
6
ByLayer
370
-1
48
1
60
0
100
AcDbLine
10
3.82689485569493E-18
20
0.0625
30
0
11
1.10214571844014E-17
21
9.68
31
0
39
0
210
0
220
0
230
1
0
LINE
5
5B
330
54
100
AcDbEntity
8
0
62
256
6
ByLayer
370
-1
48
1
60
0
100
AcDbLine
10
5
20
5.0625
30
0
11
5
21
9.68
31
0
39
0
210
0
220
0
230
1
0
LINE
5
5C
330
54
100
AcDbEntity
8
0
62
256
6
ByLayer
370
-1
48
1
60
0
100
AcDbLine
10
0
20
9.5
30
0
11
5
21
9.5
31
0
39
0
210
0
220
0
230
1
0
SOLID
5
5D
330
54
100
AcDbEntity
8
0
62
256
6
ByLayer
370
-1
48
1
60
0
100
AcDbTrace
10
0
20
9.5
30
0
11
0.18
21
9.47
31
0
12
0.18
22
9.53
32
0
13
0
23
9.5
33
0
39
0
210
0
220
0
230
1
0
SOLID
5
5E
330
54
100
AcDbEntity
8
0
62
256
6
ByLayer
370
-1
48
1
60
0
100
AcDbTrace
10
5
20
9.5
30
0
11
4.82
21
9.53
31
0
12
4.82
22
9.47
32
0
13
5
23
9.5
33
0
39
0
210
0
220
0
230
1
0
MTEXT
5
5F
330
54
100
AcDbEntity
8
0
62
256
6
ByLayer
370
-1
48
1
60
0
100
AcDbMText
10
2.5
20
9.59
30
0
210
0
220
0
230
1
1
5.00mm
40
0.18
41
0
44
1
50
0
71
8
72
5
7
Standard
0
ENDBLK
5
55
330
54
100
AcDbEntity
8
0
100
AcDbBlockEnd
0
BLOCK
5
62
330
60
100
AcDbEntity
8
0
100
AcDbBlockBegin
2
NestedBlock
70
0
10
0
20
0
30
0
3
NestedBlock
0
LINE
5
63
330
60
100
AcDbEntity
8
0
62
256
6
ByLayer
370
-1
48
1
60
0
100
AcDbLine
10
0
20
0
30
0
11
5
21
5
31
0
39
0
210
0
220
0
230
1
0
ENDBLK
5
61
330
60
100
AcDbEntity
8
0
100
AcDbBlockEnd
0
BLOCK
5
3B
330
39
100
AcDbEntity
8
0
100
AcDbBlockBegin
2
MyBlock2
70
0
10
0
20
0
30
0
3
MyBlock2
0
CIRCLE
5
3C
330
39
100
AcDbEntity
8
0
62
256
6
ByLayer
370
-1
48
1
60
0
100
AcDbCircle
10
5
20
5
30
0
40
5
39
0
210
0
220
0
230
1
0
ENDBLK
5
3A
330
39
100
AcDbEntity
8
0
100
AcDbBlockEnd
0
BLOCK
5
41
330
3F
100
AcDbEntity
8
0
100
AcDbBlockBegin
2
MyBlock3
70
0
10
0
20
0
30
0
3
MyBlock3
0
INSERT
5
43
330
3F
100
AcDbEntity
8
0
62
256
6
ByLayer
370
-1
48
1
60
0
100
AcDbBlockReference
2
MyBlock
10
10
20
10
30
0
41
1
42
1
43
1
50
0
210
0
220
0
230
1
0
INSERT
5
45
330
3F
100
AcDbEntity
8
0
62
256
6
ByLayer
370
-1
48
1
60
0
100
AcDbBlockReference
2
MyBlock2
10
-10
20
-10
30
0
41
1
42
1
43
1
50
0
210
0
220
0
230
1
0
ENDBLK
5
40
330
3F
100
AcDbEntity
8
0
100
AcDbBlockEnd
0
BLOCK
5
48
330
46
100
AcDbEntity
8
0
100
AcDbBlockBegin
2
*Paper_Space
70
0
10
0
20
0
30
0
3
*Paper_Space
0
ENDBLK
5
47
330
46
100
AcDbEntity
8
0
100
AcDbBlockEnd
0
ENDSEC
0
SECTION
2
ENTITIES
0
INSERT
5
1E
330
17
100
AcDbEntity
67
0
8
0
62
256
6
ByLayer
370
-1
48
1
60
0
100
AcDbBlockReference
2
MyBlock
10
10
20
10
30
0
41
1
42
1
43
1
50
0
210
0
220
0
230
1
0
INSERT
5
38
330
17
100
AcDbEntity
67
0
8
0
62
256
6
ByLayer
370
-1
48
1
60
0
100
AcDbBlockReference
2
MyBlock2
10
-10
20
-10
30
0
41
1
42
1
43
1
50
0
210
0
220
0
230
1
0
INSERT
5
3E
330
17
100
AcDbEntity
67
0
8
0
62
256
6
ByLayer
370
-1
48
1
60
0
100
AcDbBlockReference
2
MyBlock3
10
-10
20
10
30
0
41
1
42
1
43
1
50
0
210
0
220
0
230
1
0
VIEWPORT
5
4A
330
46
100
AcDbEntity
67
1
8
0
62
256
6
ByLayer
370
-1
48
1
60
0
100
AcDbViewport
10
0
20
0
30
0
40
297
41
210
68
1
69
1
12
50
22
100
13
0
23
0
14
10
24
10
15
10
25
10
16
0
26
0
36
1
17
0
27
0
37
0
42
50
43
0
44
0
45
250
50
0
51
0
72
1000
90
819232
110
0
120
0
130
0
111
1
121
0
131
0
112
0
122
1
132
0
0
ENDSEC
0
SECTION
2
OBJECTS
0
DICTIONARY
5
66
330
0
100
AcDbDictionary
280
0
281
1
3
ACAD_GROUP
350
67
3
ACAD_LAYOUT
350
68
3
ACAD_MLINESTYLE
350
69
0
DICTIONARY
5
67
330
66
100
AcDbDictionary
280
0
281
1
0
DICTIONARY
5
68
330
66
100
AcDbDictionary
280
0
281
1
3
Model
350
1B
3
Layout1
350
4B
0
DICTIONARY
5
69
330
66
100
AcDbDictionary
280
0
281
1
3
Standard
350
16
0
LAYOUT
5
1B
330
68
100
AcDbPlotSettings
1

2
none_device
4
ISO_A4_(210.00_x_297.00_MM)
6

40
7.5
41
20
42
7.5
43
20
44
210
45
297
46
0
47
0
48
0
49
0
140
0
141
0
142
1
143
1
70
11952
72
1
73
1
74
5
7

75
16
147
1
148
0
149
0
100
AcDbLayout
1
Model
70
1
71
1
10
-7.5
20
-7.5
11
277
21
202.5
12
0
22
0
32
0
14
25.7
24
19.5
34
0
15
231.3
25
175.5
35
0
146
0
13
0
23
0
33
0
16
1
26
0
36
0
17
0
27
1
37
0
76
0
330
17
0
LAYOUT
5
4B
330
68
100
AcDbPlotSettings
1

2
none_device
4
ISO_A4_(210.00_x_297.00_MM)
6

40
7.5
41
20
42
7.5
43
20
44
210
45
297
46
0
47
0
48
0
49
0
140
0
141
0
142
1
143
1
70
688
72
1
73
1
74
5
7

75
16
147
1
148
0
149
0
100
AcDbLayout
1
Layout1
70
1
71
1
10
-7.5
20
-7.5
11
277
21
202.5
12
0
22
0
32
0
14
25.7
24
19.5
34
0
15
231.3
25
175.5
35
0
146
0
13
0
23
0
33
0
16
1
26
0
36
0
17
0
27
1
37
0
76
0
330
46
0
MLINESTYLE
5
16
330
69
100
AcDbMlineStyle
2
Standard
70
0
3

62
256
51
90
52
90
71
2
49
-0.5
62
256
6
ByLayer
49
0.5
62
256
6
ByLayer
0
ENDSEC
0
EOF
